<svg width="24" height="24" viewBox="0 0 24 24" fill="none" xmlns="http://www.w3.org/2000/svg">
  <path d="M17.5 12C18.3284 12 19 11.3284 19 10.5C19 9.67157 18.3284 9 17.5 9C16.6716 9 16 9.67157 16 10.5C16 11.3284 16.6716 12 17.5 12Z" fill="currentColor"/>
  <path fill-rule="evenodd" clip-rule="evenodd" d="M21 3.5C17.5 4 14.5 7 12.5 9C10.8333 10.6667 7.1 16.1 2.5 17.5L2 20L4.5 19.5C9.1 18.1 14.5 14.5 16 13C18 11 21 8 21.5 4.5L21 3.5ZM16.5 7.5C15.6716 7.5 15 8.17157 15 9C15 9.82843 15.6716 10.5 16.5 10.5C17.3284 10.5 18 9.82843 18 9C18 8.17157 17.3284 7.5 16.5 7.5Z" fill="currentColor"/>
</svg>
